# xmcd CD database file
#
# Track frame offsets:
#	150
#	30157
#	57451
#	81711
#	107445
#	125824
#	137752
#
# Disc length: 2124 seconds
#
# Revision: 0
# Processed by: cddbd v1.5.1PL0 Copyright (c) Steve Scherf et al.
# Submitted via: CDex 1.51
#
DISCID=5e084a07
DTITLE=Lonnie Liston Smith And The Cosmic Echoes - Renaissance
DYEAR=1977
DGENRE=Jazz
TTITLE0=Space Lady
TTITLE1=Mardi Gras (Carnival)
TTITLE2=Starlight And You
TTITLE3=Mongotee
TTITLE4=A Song Of Love
TTITLE5=Between Here And There
TTITLE6=Renaissance
EXTD=YEAR: 1977
EXTT0=
EXTT1=
EXTT2=
EXTT3=
EXTT4=
EXTT5=
EXTT6=
PLAYORDER=
